<?xml version="1.0" standalone="no"?>
<!DOCTYPE svg PUBLIC "-//W3C//DTD SVG 20010904//EN"
 "http://www.w3.org/TR/2001/REC-SVG-20010904/DTD/svg10.dtd">
<svg version="1.0" xmlns="http://www.w3.org/2000/svg"
 width="500.000000pt" height="500.000000pt" viewBox="0 0 500.000000 500.000000"
 preserveAspectRatio="xMidYMid meet">
<metadata>
Created by potrace 1.14, written by Peter Selinger 2001-2017
</metadata>
<g transform="translate(0.000000,500.000000) scale(0.100000,-0.100000)"
fill="#000000" stroke="none">
<path d="M0 2500 l0 -2500 2500 0 2500 0 0 2500 0 2500 -2500 0 -2500 0 0
-2500z m2405 1408 c-4 -35 -11 -64 -16 -66 -5 -2 -9 -15 -9 -28 0 -13 -4 -24
-9 -24 -5 0 -12 -12 -16 -27 -5 -23 -135 -163 -151 -163 -3 0 -12 -7 -20 -15
-9 -8 -26 -15 -39 -15 -13 0 -25 -5 -27 -10 -9 -28 -126 -34 -710 -37 -329 -2
-598 -7 -598 -12 0 -5 -18 -11 -40 -15 -22 -3 -40 -11 -40 -16 0 -6 -7 -10
-15 -10 -23 0 -105 -88 -112 -121 -3 -16 -9 -29 -14 -29 -5 0 -9 -7 -9 -15 0
-8 -4 -15 -10 -15 -6 0 -10 -42 -10 -105 0 -63 4 -105 10 -105 6 0 10 -11 10
-25 0 -14 4 -25 9 -25 5 0 12 -8 15 -17 15 -42 47 -83 76 -96 17 -8 53 -30 60
-37 34 -34 46 -35 613 -38 l557 -3 0 -24 c0 -14 -4 -25 -9 -25 -4 0 -11 -21
-14 -48 -8 -65 -52 -147 -114 -210 -29 -30 -53 -57 -53 -62 0 -4 -16 -11 -35
-14 -19 -4 -35 -11 -35 -16 0 -5 -16 -12 -35 -16 -19 -3 -38 -10 -41 -15 -3
-5 -27 -9 -54 -9 -27 0 -52 -4 -55 -10 -8 -14 -595 -14 -595 0 0 6 -28 10 -64
10 -36 0 -67 4 -70 9 -3 4 -28 11 -56 15 -27 4 -50 11 -50 16 0 6 -9 10 -21
10 -27 0 -92 30 -102 47 -4 7 -14 13 -22 13 -19 0 -50 26 -149 125 -82 81
-102 106 -112 138 -4 9 -10 17 -14 17 -5 0 -11 14 -15 30 -4 17 -10 30 -15 30
-4 0 -11 18 -15 40 -4 22 -11 40 -16 40 -5 0 -9 11 -9 24 0 13 -6 26 -12 29
-10 3 -13 50 -13 192 0 142 3 189 13 193 6 2 12 19 12 38 0 19 4 34 10 34 5 0
13 18 16 40 4 22 10 40 14 40 4 0 11 11 14 25 4 14 11 25 16 25 6 0 10 7 10
15 0 8 5 15 10 15 6 0 10 7 10 15 0 8 11 25 25 39 14 14 25 29 25 33 0 14 100
113 115 113 8 0 18 6 22 13 4 8 23 22 41 32 17 11 32 22 32 26 0 4 14 10 30
14 17 4 30 11 30 16 0 5 11 9 24 9 13 0 26 5 28 11 2 6 25 13 51 16 26 3 47 9
47 14 0 4 15 10 33 12 17 2 400 5 850 5 l819 2 -7 -62z m675 -503 l0 -565 610
0 610 0 0 -25 c0 -14 -4 -25 -10 -25 -5 0 -10 -16 -10 -35 0 -19 -4 -35 -9
-35 -5 0 -11 -18 -15 -40 -3 -22 -11 -40 -16 -40 -6 0 -10 -7 -10 -15 0 -8 -4
-15 -9 -15 -5 0 -13 -9 -16 -21 -9 -26 -91 -109 -109 -109 -8 0 -16 -7 -20
-15 -3 -8 -12 -15 -21 -15 -8 0 -15 -4 -15 -9 0 -5 -18 -12 -40 -16 -22 -4
-42 -11 -46 -16 -3 -5 -30 -9 -60 -9 -30 0 -54 -4 -54 -10 0 -6 -133 -10 -380
-10 l-380 0 0 -370 c0 -203 -4 -370 -9 -370 -4 0 -11 -21 -14 -46 -2 -26 -9
-49 -13 -53 -5 -3 -16 -19 -24 -36 -8 -16 -27 -43 -42 -59 -16 -17 -28 -35
-28 -42 0 -7 -10 -16 -22 -20 -13 -4 -30 -14 -38 -24 -8 -9 -22 -20 -30 -24
-8 -4 -26 -13 -40 -21 -14 -8 -37 -15 -52 -15 -16 0 -28 -4 -28 -10 0 -5 -11
-10 -25 -10 -14 0 -25 -4 -25 -10 0 -5 -16 -10 -35 -10 l-35 0 0 1140 c0 753
3 1140 10 1140 6 0 10 20 10 44 0 25 5 48 10 51 6 3 10 13 10 21 0 23 39 104
50 104 6 0 10 6 10 14 0 19 82 102 109 111 12 3 21 11 21 16 0 5 7 9 15 9 8 0
15 4 15 9 0 5 23 12 50 16 28 4 50 11 50 15 0 8 24 13 83 18 16 2 17 -31 17
-563z m1778 -630 c-2 -783 -6 -1198 -13 -1203 -15 -10 -45 -68 -45 -85 0 -8
-7 -17 -15 -21 -8 -3 -15 -11 -15 -18 0 -15 -53 -68 -67 -68 -5 0 -19 -11 -31
-25 -12 -14 -29 -25 -37 -25 -8 0 -15 -4 -15 -10 0 -5 -18 -13 -40 -16 -22 -4
-40 -10 -40 -15 0 -5 -16 -9 -35 -9 -19 0 -35 -4 -35 -10 0 -5 -14 -10 -30
-10 l-31 0 3 1177 c2 930 6 1177 16 1181 6 2 12 17 12 32 0 16 4 31 9 34 5 3
12 17 15 31 4 14 14 34 24 45 9 10 32 37 51 59 19 23 40 41 48 41 7 0 13 4 13
9 0 5 10 13 22 17 12 3 30 15 41 25 11 9 37 21 58 24 22 4 39 11 39 15 0 5 17
11 38 13 20 2 43 4 50 5 10 2 12 -228 10 -1193z m-4650 -187 c2 -4 12 -8 22
-8 10 0 21 -4 25 -9 3 -5 19 -12 35 -16 17 -4 30 -10 30 -15 0 -4 8 -10 18
-14 55 -18 136 -102 162 -166 6 -14 15 -33 20 -42 6 -10 10 -26 10 -36 0 -10
4 -22 10 -28 5 -5 13 -65 17 -132 3 -68 10 -125 15 -128 4 -3 8 -14 8 -25 0
-10 4 -19 9 -19 5 0 11 -14 15 -30 3 -17 17 -41 31 -54 14 -13 25 -26 25 -30
0 -11 27 -36 39 -36 6 0 11 -4 11 -10 0 -5 11 -12 24 -16 14 -3 27 -12 30 -20
3 -8 17 -14 31 -14 14 0 25 -4 25 -10 0 -5 16 -10 35 -10 19 0 35 -4 35 -10 0
-5 226 -10 598 -12 505 -3 601 -6 624 -18 16 -8 28 -18 28 -22 0 -3 14 -9 30
-13 17 -4 30 -10 30 -15 0 -5 9 -12 21 -15 12 -4 38 -24 59 -45 21 -21 41 -47
45 -59 3 -12 10 -21 15 -21 5 0 11 -13 15 -30 4 -16 11 -30 16 -30 5 0 9 -11
9 -24 0 -13 4 -26 9 -28 5 -1 12 -31 16 -66 l7 -63 -818 3 c-643 2 -818 6
-822 16 -2 6 -17 12 -32 12 -16 0 -31 4 -35 9 -3 6 -26 13 -50 17 -25 3 -45
10 -45 14 0 5 -13 11 -30 15 -16 4 -30 11 -30 16 0 5 -9 9 -19 9 -10 0 -21 7
-25 15 -3 8 -12 15 -20 15 -17 0 -36 15 -126 105 -87 87 -120 125 -120 141 0
7 -3 14 -7 16 -12 5 -43 64 -43 82 0 9 -4 16 -10 16 -5 0 -13 18 -16 40 -4 22
-10 40 -15 40 -5 0 -9 11 -9 24 0 13 -6 26 -12 28 -10 4 -14 88 -16 366 l-4
362 49 -7 c26 -3 50 -10 51 -15z"/>
</g>
</svg>
